# xmcd
# 
# Track frame offsets:
#     182
#     12627
#     27450
#     38320
#     52107
#     65510
#     80717
#     93207
#     106977
#     117285
#     131577
#     143762
#     157390
#     169385
#     183005
# 
# Disc length: 2585
# 
# Revision: 4
# Processed by: cddbd v1.5.2PL0 Copyright (c) Steve Scherf et al.
# Submitted via: fre:ac v1.0.31
# 
DISCID=ce0a170f
DTITLE=Columbia Blues - Elmore James and John Brim Whose Muddy Shoes
DYEAR=0
DGENRE=Blues
TTITLE0=Ice Cream Man (John Brim)
TTITLE1=Whose Muddy Shoes (Elmore James)
TTITLE2=Madison Blues (Elmore James)
TTITLE3=I See My Baby (Elmore James)
TTITLE4=You Got Me (John Brim)
TTITLE5=My Best Friend (Elmore James)
TTITLE6=The Sun Is Shining (Elmore James)
TTITLE7=Lifetime Baby (John Brim)
TTITLE8=Talk To Me Baby (Elmore James)
TTITLE9=Rattlesnake (John Brim)
TTITLE10=Be Careful What You Do (John Brim)
TTITLE11=Dust My Broom (Elmore James)
TTITLE12=Tool Bag Boogie (Elmore James)
TTITLE13=Tough Times (John Brim)
TTITLE14=Stormy Monday (Elmore James)
EXTD=
EXTT0=
EXTT1=
EXTT2=
EXTT3=
EXTT4=
EXTT5=
EXTT6=
EXTT7=
EXTT8=
EXTT9=
EXTT10=
EXTT11=
EXTT12=
EXTT13=
EXTT14=
PLAYORDER=
